<?xml version="1.0" encoding="UTF-8" standalone="no"?>
<!-- Created with Inkscape (http://www.inkscape.org/) -->

<svg
   width="465.18872"
   height="453.11011"
   viewBox="0 0 465.18872 453.11011"
   version="1.1"
   id="svg1"
   xml:space="preserve"
   xmlns="http://www.w3.org/2000/svg"
   xmlns:svg="http://www.w3.org/2000/svg"><defs
     id="defs1" /><g
     id="layer1"
     transform="translate(-38.410591,-35.221439)"><path
       style="fill:#3e2c5b;fill-opacity:1;stroke:none;stroke-width:1.02307;stroke-opacity:1"
       d="M 151.85824,127.63996 C 135.5109,111.06944 122.1358,97.048289 122.1358,96.481834 c 0,-1.175676 59.07061,-61.260393 60.22643,-61.260393 0.41576,0 0.75593,27.573021 0.75593,61.273379 0,33.70036 -0.34593,61.27339 -0.76874,61.27339 -0.4228,0 -14.14383,-13.55772 -30.49118,-30.12825 z"
       id="path1-88" /><path
       d="m 78.71546,199.75882 -30.739073,-31.15787 30.999467,-31.39643 30.999376,-31.39644 30.99947,31.39644 30.99936,31.39643 -30.73907,31.15787 c -16.90644,17.13684 -30.97335,31.15788 -31.25976,31.15788 -0.28631,0 -14.353214,-14.02104 -31.25977,-31.15788 z"
       style="fill:#e54235;fill-opacity:1;stroke:none;stroke-width:1.02307;stroke-opacity:1"
       id="path1-8-2" /><path
       d="m 193.20688,303.72916 c 0,-68.67335 0.34445,-124.86064 0.76543,-124.86064 0.42098,0 28.32039,27.922 61.99875,62.04889 l 61.23331,62.0489 -61.99874,62.81176 -61.99875,62.81175 z"
       style="fill:#f2a51a;fill-opacity:1;stroke:none;stroke-width:1.02307;stroke-opacity:1"
       id="path1-1-4" /><path
       d="m 334.66992,487.62161 c 0.46204,-1.29976 79.55738,-84.59885 82.14903,-86.51504 1.36123,-1.00648 11.32198,-1.23819 44.26841,-1.02981 l 42.51193,0.26889 -41.47157,43.50925 -41.47156,43.50926 h -21.54242 c -11.84837,0 -31.28395,0.30739 -43.19015,0.68308 -15.29062,0.4825 -21.53196,0.35749 -21.25367,-0.42563 z"
       style="fill:#6782ba;fill-opacity:1;stroke:none;stroke-width:1.02307;stroke-opacity:1"
       id="path1-7-5" /><path
       d="m 153.6918,486.66794 c 0,-0.42604 39.33362,-40.62601 87.408,-89.33331 l 87.40805,-88.55871 v 89.33331 89.33332 H 241.0998 c -48.07438,0 -87.408,-0.34859 -87.408,-0.77461 z"
       style="fill:#216f34;fill-opacity:1;stroke:none;stroke-width:1.02307;stroke-opacity:1"
       id="path1-3-5" /><path
       d="m 136.96438,309.70561 -43.958212,-44.548 43.663972,-44.23201 c 24.01516,-24.3276 43.9132,-43.97939 44.21791,-43.67065 0.30481,0.30874 0.43714,40.25976 0.29424,88.78003 l -0.25979,88.21875 z"
       style="fill:#ef8e86;fill-opacity:1;stroke:none;stroke-width:1.02307;stroke-opacity:1"
       id="path1-34-1" /><path
       d="M 38.410592,98.966547 V 37.437848 L 69.151596,68.585105 99.892611,99.732351 69.920381,130.1138 c -16.484752,16.70981 -30.318194,30.38145 -30.741005,30.38145 -0.422811,0 -0.768784,-27.68791 -0.768784,-61.528703 z"
       style="fill:#274d9d;fill-opacity:1;stroke:none;stroke-width:1.02307;stroke-opacity:1"
       id="path1-87-7" /></g></svg>
