<?xml version="1.0" encoding="UTF-8" standalone="no"?>
<!-- Created with Inkscape (http://www.inkscape.org/) -->

<svg
   width="1000.0001"
   height="1000.0001"
   viewBox="0 0 264.58335 264.58335"
   version="1.1"
   id="svg1"
   xml:space="preserve"
   xmlns="http://www.w3.org/2000/svg"
   xmlns:svg="http://www.w3.org/2000/svg"><defs
     id="defs1" /><g
     id="layer1"><path
       style="fill:#000000;stroke-width:5.9348"
       d="m 111.85632,244.62966 c -41.758182,-7.03143 -77.517081,-40.37099 -88.297903,-82.3239 -3.149217,-12.25501 -3.149217,-39.68855 0,-51.94355 9.532248,-37.09422 38.918858,-68.07612 74.993393,-79.06457 34.90537,-10.63237 75.74278,-1.98021 102.01632,21.61394 5.90222,5.30031 5.90222,5.30031 18.43321,-6.67172 13.88743,-13.26796 17.92196,-14.60952 24.41366,-8.1178 3.85425,3.85424 3.85425,3.85424 3.85425,39.32759 0,47.14301 3.86316,43.18183 -42.11358,43.18183 -32.42904,0 -34.64272,-0.18694 -38.54247,-3.25446 -3.03063,-2.38389 -4.13739,-4.69288 -4.13739,-8.63163 0,-4.5219 1.79503,-7.26687 11.28563,-17.25798 C 185.04708,79.60654 185.04708,79.60654 180.435,75.851 156.00872,55.96082 120.00504,52.28759 92.720864,66.90215 c -10.794228,5.7818 -27.43856,22.76363 -32.654055,33.31612 -15.848487,32.06619 -10.395653,66.12689 14.610619,91.26408 15.870802,15.95393 33.319102,23.26702 55.608292,23.30702 18.81978,0.0356 34.04647,-5.68132 51.70011,-19.40489 10.19598,-7.92616 16.78002,-9.2482 23.64774,-4.74831 4.81278,3.15345 7.68827,11.44104 5.74397,16.55488 -3.12238,8.21251 -25.11268,24.89345 -41.33985,31.3587 -16.51611,6.58039 -40.39178,9.07538 -58.18137,6.07991 z"
       id="path1" /></g></svg>
